<svg xmlns="http://www.w3.org/2000/svg" viewBox="0 0 200 200" fill="none">
  <!-- Head silhouette -->
  <path d="M140 30 C140 30 155 45 158 70 C161 95 152 115 145 125 C138 135 130 140 125 142 L125 158 L95 158 L95 142 C85 140 75 130 68 118 C61 106 60 88 65 72 C70 56 80 42 95 34 C110 26 128 26 140 30 Z" stroke="#c0c0c0" stroke-width="2.5" fill="none" opacity="0.8"/>
  <!-- Neural network nodes -->
  <circle cx="85" cy="62" r="4" fill="#ea580c" opacity="0.9"/>
  <circle cx="105" cy="52" r="3.5" fill="#ea580c" opacity="0.7"/>
  <circle cx="122" cy="65" r="4" fill="#ea580c" opacity="0.9"/>
  <circle cx="130" cy="85" r="3.5" fill="#ea580c" opacity="0.7"/>
  <circle cx="118" cy="100" r="3.5" fill="#ea580c" opacity="0.6"/>
  <circle cx="95" cy="95" r="4" fill="#ea580c" opacity="0.8"/>
  <circle cx="78" cy="80" r="3" fill="#ea580c" opacity="0.6"/>
  <circle cx="110" cy="75" r="3" fill="#f0a040" opacity="0.5"/>
  <!-- Neural network connections -->
  <line x1="85" y1="62" x2="105" y2="52" stroke="#ea580c" stroke-width="1" opacity="0.4"/>
  <line x1="105" y1="52" x2="122" y2="65" stroke="#ea580c" stroke-width="1" opacity="0.4"/>
  <line x1="122" y1="65" x2="130" y2="85" stroke="#ea580c" stroke-width="1" opacity="0.4"/>
  <line x1="130" y1="85" x2="118" y2="100" stroke="#ea580c" stroke-width="1" opacity="0.4"/>
  <line x1="118" y1="100" x2="95" y2="95" stroke="#ea580c" stroke-width="1" opacity="0.4"/>
  <line x1="95" y1="95" x2="78" y2="80" stroke="#ea580c" stroke-width="1" opacity="0.4"/>
  <line x1="78" y1="80" x2="85" y2="62" stroke="#ea580c" stroke-width="1" opacity="0.4"/>
  <line x1="85" y1="62" x2="110" y2="75" stroke="#ea580c" stroke-width="1" opacity="0.3"/>
  <line x1="110" y1="75" x2="122" y2="65" stroke="#ea580c" stroke-width="1" opacity="0.3"/>
  <line x1="105" y1="52" x2="95" y2="95" stroke="#ea580c" stroke-width="0.8" opacity="0.2"/>
  <line x1="85" y1="62" x2="130" y2="85" stroke="#ea580c" stroke-width="0.8" opacity="0.2"/>
  <!-- Lightbulb outline -->
  <path d="M108 68 C108 60 116 54 116 68 C116 76 112 80 112 85 L104 85 C104 80 100 76 100 68 C100 54 108 60 108 68Z" stroke="#c0c0c0" stroke-width="1.5" fill="none" opacity="0.6"/>
  <line x1="104" y1="87" x2="112" y2="87" stroke="#c0c0c0" stroke-width="1.5" opacity="0.6"/>
  <line x1="105" y1="90" x2="111" y2="90" stroke="#c0c0c0" stroke-width="1.2" opacity="0.5"/>
  <!-- Central glow -->
  <radialGradient id="glow" cx="50%" cy="50%" r="50%">
    <stop offset="0%" stop-color="#ffffff" stop-opacity="0.95"/>
    <stop offset="30%" stop-color="#ea580c" stop-opacity="0.85"/>
    <stop offset="100%" stop-color="#ea580c" stop-opacity="0"/>
  </radialGradient>
  <circle cx="108" cy="75" r="12" fill="url(#glow)"/>
  <!-- Rays from center -->
  <line x1="108" y1="63" x2="108" y2="58" stroke="#ea580c" stroke-width="1.5" opacity="0.8"/>
  <line x1="116" y1="67" x2="120" y2="63" stroke="#ea580c" stroke-width="1.5" opacity="0.8"/>
  <line x1="120" y1="75" x2="125" y2="75" stroke="#ea580c" stroke-width="1.5" opacity="0.8"/>
  <line x1="116" y1="83" x2="120" y2="87" stroke="#ea580c" stroke-width="1.2" opacity="0.6"/>
  <line x1="100" y1="67" x2="96" y2="63" stroke="#ea580c" stroke-width="1.2" opacity="0.6"/>
  <line x1="96" y1="75" x2="91" y2="75" stroke="#ea580c" stroke-width="1.2" opacity="0.6"/>
</svg>
